<svg width="270" height="70" xmlns="http://www.w3.org/2000/svg" xmlns:xlink="http://www.w3.org/1999/xlink" overflow="hidden">
  <rect x="0" y="0" width="270" height="70" fill="transparent"/>
  <path d="M144.66 37.2026C143.925 37.2026 143.299 37.2568 142.781 37.3652 142.263 37.4736 141.842 37.6362 141.516 37.853 141.191 38.0698 140.953 38.3318 140.803 38.6389 140.652 38.946 140.577 39.2983 140.577 39.6958 140.577 40.3703 140.791 40.9002 141.218 41.2856 141.646 41.671 142.239 41.8638 142.998 41.8638 143.636 41.8638 144.223 41.7012 144.759 41.376 145.295 41.0508 145.84 40.575 146.394 39.9487L146.394 37.2026ZM126.299 30.1206C125.721 30.1206 125.218 30.229 124.79 30.4458 124.363 30.6626 124.007 30.9547 123.724 31.322 123.441 31.6894 123.224 32.1229 123.074 32.6228 122.923 33.1226 122.836 33.6556 122.812 34.2217L129.605 34.2217C129.641 32.945 129.385 31.9423 128.837 31.2136 128.289 30.4849 127.443 30.1206 126.299 30.1206ZM165.449 26.9048C166.111 26.9048 166.707 26.974 167.237 27.1125 167.767 27.251 168.24 27.4498 168.655 27.7087 169.071 27.9677 169.429 28.2778 169.73 28.6391 170.031 29.0005 170.284 29.404 170.489 29.8496 170.971 29.3317 171.444 28.886 171.907 28.5127 172.371 28.1393 172.829 27.8352 173.28 27.6003 173.732 27.3655 174.184 27.1908 174.635 27.0764 175.087 26.962 175.548 26.9048 176.017 26.9048 177.089 26.9048 177.993 27.0854 178.727 27.4468 179.462 27.8081 180.055 28.2989 180.507 28.9192 180.959 29.5394 181.281 30.2651 181.474 31.0962 181.666 31.9272 181.763 32.8065 181.763 33.7339L181.763 44.0498C181.763 44.1702 181.726 44.2756 181.654 44.3659 181.582 44.4563 181.461 44.5316 181.293 44.5918 181.124 44.652 180.895 44.6972 180.606 44.7273 180.317 44.7574 179.95 44.7724 179.504 44.7724 179.047 44.7724 178.673 44.7574 178.384 44.7273 178.095 44.6972 177.863 44.652 177.689 44.5918 177.514 44.5316 177.394 44.4563 177.327 44.3659 177.261 44.2756 177.228 44.1702 177.228 44.0498L177.228 34.4927C177.228 33.9507 177.177 33.4568 177.074 33.0112 176.972 32.5656 176.815 32.1832 176.605 31.864 176.394 31.5448 176.129 31.2979 175.81 31.1233 175.491 30.9486 175.108 30.8613 174.662 30.8613 174.12 30.8613 173.572 31.0721 173.018 31.4936 172.464 31.9152 171.862 32.5294 171.212 33.3364L171.212 44.0498C171.212 44.1702 171.176 44.2756 171.103 44.3659 171.031 44.4563 170.908 44.5316 170.733 44.5918 170.558 44.652 170.327 44.6972 170.037 44.7273 169.748 44.7574 169.387 44.7724 168.953 44.7724 168.508 44.7724 168.141 44.7574 167.851 44.7273 167.562 44.6972 167.331 44.652 167.156 44.5918 166.981 44.5316 166.858 44.4563 166.786 44.3659 166.713 44.2756 166.677 44.1702 166.677 44.0498L166.677 34.4927C166.677 33.9507 166.626 33.4568 166.524 33.0112 166.421 32.5656 166.268 32.1832 166.063 31.864 165.858 31.5448 165.593 31.2979 165.268 31.1233 164.943 30.9486 164.563 30.8613 164.13 30.8613 163.576 30.8613 163.022 31.0721 162.468 31.4936 161.914 31.9152 161.317 32.5294 160.679 33.3364L160.679 44.0498C160.679 44.1702 160.643 44.2756 160.571 44.3659 160.498 44.4563 160.375 44.5316 160.2 44.5918 160.026 44.652 159.794 44.6972 159.505 44.7273 159.216 44.7574 158.848 44.7724 158.403 44.7724 157.957 44.7724 157.59 44.7574 157.301 44.7273 157.012 44.6972 156.78 44.652 156.605 44.5918 156.43 44.5316 156.307 44.4563 156.235 44.3659 156.162 44.2756 156.126 44.1702 156.126 44.0498L156.126 27.9346C156.126 27.8141 156.156 27.7087 156.217 27.6184 156.277 27.5281 156.385 27.4528 156.542 27.3926 156.698 27.3323 156.9 27.2872 157.147 27.2571 157.394 27.2269 157.704 27.2119 158.078 27.2119 158.463 27.2119 158.782 27.2269 159.035 27.2571 159.288 27.2872 159.484 27.3323 159.622 27.3926 159.761 27.4528 159.86 27.5281 159.92 27.6184 159.981 27.7087 160.011 27.8141 160.011 27.9346L160.011 29.7954C160.902 28.8319 161.79 28.1092 162.675 27.6274 163.561 27.1457 164.485 26.9048 165.449 26.9048ZM143.739 26.9048C145.003 26.9048 146.084 27.0282 146.982 27.2751 147.879 27.522 148.617 27.9014 149.195 28.4133 149.773 28.9252 150.194 29.5846 150.459 30.3916 150.724 31.1985 150.857 32.1561 150.857 33.2641L150.857 44.104C150.857 44.2726 150.797 44.4051 150.676 44.5014 150.556 44.5978 150.366 44.6671 150.107 44.7092 149.848 44.7514 149.466 44.7724 148.96 44.7724 148.418 44.7724 148.023 44.7514 147.776 44.7092 147.53 44.6671 147.355 44.5978 147.253 44.5014 147.15 44.4051 147.099 44.2726 147.099 44.104L147.099 42.8213C146.437 43.5319 145.681 44.0859 144.832 44.4834 143.983 44.8808 143.04 45.0796 142.004 45.0796 141.149 45.0796 140.363 44.9682 139.647 44.7453 138.93 44.5225 138.31 44.1913 137.786 43.7517 137.262 43.3121 136.855 42.7671 136.566 42.1167 136.277 41.4663 136.133 40.7075 136.133 39.8403 136.133 38.9009 136.316 38.0849 136.684 37.3923 137.051 36.6998 137.599 36.1277 138.328 35.676 139.056 35.2243 139.963 34.8901 141.047 34.6733 142.131 34.4565 143.389 34.3481 144.823 34.3481L146.394 34.3481 146.394 33.3725C146.394 32.8667 146.343 32.4241 146.241 32.0447 146.138 31.6653 145.97 31.3491 145.735 31.0962 145.5 30.8432 145.187 30.6566 144.796 30.5361 144.404 30.4157 143.919 30.3554 143.341 30.3554 142.582 30.3554 141.905 30.4398 141.309 30.6084 140.713 30.777 140.186 30.9637 139.728 31.1684 139.27 31.3732 138.888 31.5599 138.581 31.7285 138.274 31.8971 138.024 31.9814 137.831 31.9814 137.698 31.9814 137.581 31.9393 137.479 31.855 137.376 31.7707 137.292 31.6502 137.226 31.4936 137.159 31.3371 137.108 31.1444 137.072 30.9155 137.036 30.6867 137.018 30.4337 137.018 30.1567 137.018 29.7833 137.048 29.4883 137.108 29.2715 137.169 29.0547 137.283 28.8589 137.452 28.6843 137.62 28.5097 137.915 28.317 138.337 28.1062 138.758 27.8954 139.252 27.6997 139.818 27.519 140.384 27.3384 141.002 27.1908 141.67 27.0764 142.339 26.962 143.028 26.9048 143.739 26.9048ZM126.407 26.9048C127.756 26.9048 128.909 27.1035 129.867 27.501 130.824 27.8984 131.61 28.4494 132.224 29.154 132.839 29.8586 133.29 30.6927 133.579 31.6562 133.869 32.6198 134.013 33.6676 134.013 34.7998L134.013 35.5224C134.013 36.0765 133.89 36.486 133.643 36.751 133.396 37.0159 133.056 37.1484 132.622 37.1484L122.812 37.1484C122.812 37.8349 122.893 38.4582 123.056 39.0183 123.218 39.5784 123.477 40.0541 123.833 40.4455 124.188 40.837 124.646 41.1351 125.206 41.3398 125.766 41.5446 126.437 41.647 127.22 41.647 128.015 41.647 128.714 41.5897 129.316 41.4753 129.918 41.3609 130.439 41.2344 130.879 41.0959 131.318 40.9574 131.682 40.831 131.972 40.7165 132.261 40.6021 132.495 40.5449 132.676 40.5449 132.785 40.5449 132.875 40.566 132.947 40.6081 133.019 40.6503 133.08 40.7256 133.128 40.834 133.176 40.9424 133.209 41.0959 133.227 41.2947 133.245 41.4934 133.254 41.7433 133.254 42.0444 133.254 42.3094 133.248 42.5352 133.236 42.7219 133.224 42.9086 133.206 43.0682 133.182 43.2007 133.158 43.3332 133.122 43.4446 133.074 43.5349 133.025 43.6252 132.962 43.7125 132.884 43.7969 132.806 43.8812 132.592 43.9956 132.243 44.1401 131.893 44.2846 131.448 44.4262 130.906 44.5647 130.364 44.7032 129.743 44.8236 129.045 44.926 128.346 45.0284 127.599 45.0796 126.805 45.0796 125.371 45.0796 124.116 44.8989 123.038 44.5376 121.96 44.1763 121.059 43.6282 120.337 42.8935 119.614 42.1588 119.075 41.2314 118.72 40.1113 118.365 38.9912 118.187 37.6784 118.187 36.1728 118.187 34.7396 118.374 33.4478 118.747 32.2976 119.12 31.1474 119.662 30.1718 120.373 29.3708 121.084 28.5699 121.948 27.9586 122.965 27.5371 123.983 27.1155 125.13 26.9048 126.407 26.9048ZM114.292 26.9048C114.449 26.9048 114.618 26.9138 114.798 26.9319 114.979 26.9499 115.166 26.98 115.358 27.0222 115.551 27.0644 115.72 27.1125 115.864 27.1667 116.009 27.2209 116.114 27.2781 116.18 27.3384 116.247 27.3986 116.295 27.4648 116.325 27.5371 116.355 27.6094 116.382 27.7087 116.406 27.8352 116.43 27.9617 116.448 28.1513 116.46 28.4043 116.472 28.6572 116.478 29.0005 116.478 29.4341 116.478 29.8677 116.466 30.223 116.442 30.5 116.418 30.777 116.382 30.9938 116.334 31.1504 116.286 31.3069 116.222 31.4153 116.144 31.4756 116.066 31.5358 115.967 31.5659 115.846 31.5659 115.75 31.5659 115.641 31.5448 115.521 31.5027 115.4 31.4605 115.265 31.4153 115.114 31.3672 114.964 31.319 114.798 31.2738 114.618 31.2317 114.437 31.1895 114.238 31.1684 114.021 31.1684 113.768 31.1684 113.516 31.2196 113.263 31.322 113.01 31.4244 112.748 31.584 112.477 31.8008 112.206 32.0176 111.923 32.3066 111.628 32.6679 111.332 33.0293 111.016 33.4749 110.679 34.0049L110.679 44.0498C110.679 44.1702 110.643 44.2756 110.571 44.3659 110.498 44.4563 110.375 44.5316 110.2 44.5918 110.026 44.652 109.794 44.6972 109.505 44.7273 109.216 44.7574 108.848 44.7724 108.403 44.7724 107.957 44.7724 107.59 44.7574 107.301 44.7273 107.012 44.6972 106.78 44.652 106.605 44.5918 106.43 44.5316 106.307 44.4563 106.235 44.3659 106.162 44.2756 106.126 44.1702 106.126 44.0498L106.126 27.9346C106.126 27.8141 106.156 27.7087 106.217 27.6184 106.277 27.5281 106.385 27.4528 106.542 27.3926 106.698 27.3323 106.9 27.2872 107.147 27.2571 107.394 27.2269 107.704 27.2119 108.078 27.2119 108.463 27.2119 108.782 27.2269 109.035 27.2571 109.288 27.2872 109.484 27.3323 109.622 27.3926 109.761 27.4528 109.86 27.5281 109.92 27.6184 109.981 27.7087 110.011 27.8141 110.011 27.9346L110.011 29.9399C110.432 29.3377 110.83 28.8409 111.203 28.4494 111.576 28.058 111.932 27.7479 112.269 27.519 112.606 27.2902 112.943 27.1306 113.281 27.0403 113.618 26.9499 113.955 26.9048 114.292 26.9048ZM96.1615 22.9663C96.6071 22.9663 96.9775 22.9813 97.2726 23.0115 97.5677 23.0416 97.7995 23.0897 97.9681 23.156 98.1368 23.2222 98.2572 23.3035 98.3295 23.3999 98.4017 23.4962 98.4379 23.6046 98.4379 23.7251L98.4379 27.3203 101.943 27.3203C102.063 27.3203 102.169 27.3504 102.259 27.4106 102.349 27.4708 102.425 27.5702 102.485 27.7087 102.545 27.8472 102.59 28.0369 102.62 28.2778 102.65 28.5187 102.665 28.8138 102.665 29.1631 102.665 29.8255 102.605 30.2982 102.485 30.5813 102.364 30.8643 102.19 31.0058 101.961 31.0058L98.4379 31.0058 98.4379 38.5757C98.4379 39.4549 98.5764 40.1143 98.8534 40.5539 99.1304 40.9936 99.6242 41.2134 100.335 41.2134 100.576 41.2134 100.793 41.1923 100.985 41.1501 101.178 41.108 101.35 41.0598 101.5 41.0056 101.651 40.9514 101.777 40.9032 101.88 40.8611 101.982 40.8189 102.075 40.7978 102.16 40.7978 102.232 40.7978 102.301 40.8189 102.367 40.8611 102.434 40.9032 102.485 40.9875 102.521 41.114 102.557 41.2405 102.59 41.4121 102.62 41.6289 102.65 41.8457 102.665 42.1227 102.665 42.4599 102.665 42.9899 102.632 43.3964 102.566 43.6794 102.5 43.9625 102.412 44.1612 102.304 44.2756 102.196 44.39 102.036 44.4924 101.825 44.5827 101.615 44.6731 101.368 44.7514 101.085 44.8176 100.802 44.8839 100.494 44.935 100.163 44.9712 99.832 45.0073 99.4978 45.0254 99.1605 45.0254 98.2572 45.0254 97.4743 44.9109 96.8119 44.6821 96.1495 44.4533 95.6014 44.101 95.1678 43.6252 94.7343 43.1495 94.4151 42.5503 94.2103 41.8276 94.0056 41.105 93.9032 40.2498 93.9032 39.2622L93.9032 31.0058 91.9701 31.0058C91.7413 31.0058 91.5666 30.8643 91.4462 30.5813 91.3257 30.2982 91.2655 29.8255 91.2655 29.1631 91.2655 28.8138 91.2806 28.5187 91.3107 28.2778 91.3408 28.0369 91.3859 27.8472 91.4462 27.7087 91.5064 27.5702 91.5817 27.4708 91.672 27.4106 91.7623 27.3504 91.8677 27.3203 91.9882 27.3203L93.9032 27.3203 93.9032 23.7251C93.9032 23.6046 93.9363 23.4962 94.0026 23.3999 94.0688 23.3035 94.1893 23.2222 94.3639 23.156 94.5385 23.0897 94.7734 23.0416 95.0685 23.0115 95.3636 22.9813 95.7279 22.9663 96.1615 22.9663ZM82.2264 20.8706C82.7805 20.8706 83.3345 20.9127 83.8885 20.9971 84.4426 21.0814 84.9605 21.1958 85.4423 21.3403 85.924 21.4848 86.3516 21.6474 86.725 21.8281 87.0984 22.0088 87.3453 22.1593 87.4657 22.2798 87.5861 22.4002 87.6674 22.5026 87.7096 22.5869 87.7517 22.6712 87.7879 22.7826 87.818 22.9211 87.8481 23.0596 87.8692 23.2343 87.8812 23.445 87.8933 23.6558 87.8993 23.9178 87.8993 24.2309 87.8993 24.5802 87.8903 24.8753 87.8722 25.1162 87.8541 25.3571 87.824 25.5558 87.7819 25.7124 87.7397 25.869 87.6795 25.9834 87.6012 26.0556 87.5229 26.1279 87.4175 26.164 87.285 26.164 87.1525 26.164 86.9418 26.0797 86.6527 25.9111 86.3636 25.7425 86.0083 25.5588 85.5868 25.3601 85.1652 25.1614 84.6775 24.9807 84.1234 24.8181 83.5694 24.6555 82.9611 24.5742 82.2987 24.5742 81.7808 24.5742 81.3291 24.6374 80.9437 24.7639 80.5583 24.8904 80.2361 25.065 79.9772 25.2878 79.7182 25.5106 79.5255 25.7786 79.399 26.0918 79.2726 26.4049 79.2094 26.7361 79.2094 27.0854 79.2094 27.6033 79.3509 28.052 79.6339 28.4314 79.917 28.8108 80.2963 29.148 80.7721 29.4431 81.2478 29.7382 81.7868 30.0152 82.389 30.2742 82.9912 30.5331 83.6055 30.8071 84.2318 31.0962 84.8581 31.3852 85.4724 31.7134 86.0746 32.0808 86.6768 32.4481 87.2128 32.8878 87.6825 33.3996 88.1522 33.9115 88.5316 34.5137 88.8207 35.2063 89.1097 35.8988 89.2543 36.7148 89.2543 37.6543 89.2543 38.8828 89.0254 39.9608 88.5677 40.8882 88.1101 41.8156 87.4898 42.5894 86.7069 43.2097 85.924 43.83 85.0087 44.2967 83.9608 44.6098 82.913 44.923 81.7928 45.0796 80.6005 45.0796 79.7935 45.0796 79.0437 45.0133 78.3512 44.8808 77.6587 44.7484 77.0474 44.5888 76.5175 44.4021 75.9875 44.2154 75.5449 44.0197 75.1896 43.8149 74.8343 43.6102 74.5783 43.4295 74.4218 43.2729 74.2652 43.1164 74.1538 42.8905 74.0875 42.5954 74.0213 42.3004 73.9882 41.8758 73.9882 41.3218 73.9882 40.9484 74.0002 40.6352 74.0243 40.3823 74.0484 40.1294 74.0875 39.9246 74.1417 39.768 74.1959 39.6115 74.2682 39.5001 74.3585 39.4338 74.4489 39.3676 74.5542 39.3345 74.6747 39.3345 74.8433 39.3345 75.0812 39.4338 75.3883 39.6325 75.6954 39.8313 76.0899 40.0511 76.5717 40.292 77.0534 40.5329 77.6285 40.7527 78.297 40.9514 78.9655 41.1501 79.7393 41.2495 80.6185 41.2495 81.1967 41.2495 81.7146 41.1802 82.1722 41.0417 82.6299 40.9032 83.0184 40.7075 83.3375 40.4546 83.6567 40.2016 83.9006 39.8885 84.0692 39.5151 84.2378 39.1417 84.3221 38.7262 84.3221 38.2685 84.3221 37.7386 84.1776 37.2839 83.8885 36.9045 83.5995 36.5251 83.2231 36.1879 82.7594 35.8928 82.2957 35.5977 81.7688 35.3207 81.1786 35.0617 80.5884 34.8028 79.9802 34.5288 79.3539 34.2397 78.7276 33.9507 78.1193 33.6225 77.5292 33.2551 76.939 32.8878 76.4121 32.4481 75.9484 31.9363 75.4847 31.4244 75.1083 30.8192 74.8192 30.1206 74.5302 29.422 74.3856 28.5849 74.3856 27.6094 74.3856 26.4892 74.5934 25.5046 75.0089 24.6555 75.4244 23.8064 75.9845 23.1018 76.6891 22.5417 77.3937 21.9817 78.2247 21.5631 79.1823 21.2861 80.1398 21.0091 81.1545 20.8706 82.2264 20.8706Z" stroke="#F2F2F2" stroke-linejoin="round" stroke-miterlimit="10" fill="#FFFFFF" fill-rule="evenodd"/>
  <text fill="#000000" fill-opacity="0" font-family="Arial,Arial_MSFontService,sans-serif" font-size="24.209" x="73.9882" y="42.0534">Stream</text>
  <path d="M257.545 30.1206C256.967 30.1206 256.464 30.229 256.037 30.4458 255.609 30.6626 255.254 30.9547 254.971 31.322 254.688 31.6894 254.471 32.1229 254.321 32.6228 254.17 33.1226 254.083 33.6556 254.059 34.2217L260.852 34.2217C260.888 32.945 260.632 31.9423 260.084 31.2136 259.536 30.4849 258.69 30.1206 257.545 30.1206ZM208.541 27.2119C208.987 27.2119 209.354 27.2269 209.643 27.2571 209.932 27.2872 210.164 27.3323 210.339 27.3926 210.513 27.4528 210.637 27.5281 210.709 27.6184 210.781 27.7087 210.817 27.8141 210.817 27.9346L210.817 37.04C210.817 37.8831 210.872 38.5275 210.98 38.9731 211.088 39.4188 211.254 39.8012 211.477 40.1203 211.7 40.4395 211.983 40.6864 212.326 40.8611 212.669 41.0357 213.07 41.123 213.527 41.123 214.105 41.123 214.687 40.9123 215.271 40.4907 215.855 40.0692 216.478 39.4549 217.141 38.6479L217.141 27.9346C217.141 27.8141 217.174 27.7087 217.24 27.6184 217.306 27.5281 217.427 27.4528 217.601 27.3926 217.776 27.3323 218.008 27.2872 218.297 27.2571 218.586 27.2269 218.953 27.2119 219.399 27.2119 219.845 27.2119 220.212 27.2269 220.501 27.2571 220.79 27.2872 221.019 27.3323 221.187 27.3926 221.356 27.4528 221.477 27.5281 221.549 27.6184 221.621 27.7087 221.657 27.8141 221.657 27.9346L221.657 44.0498C221.657 44.1702 221.627 44.2756 221.567 44.3659 221.507 44.4563 221.401 44.5316 221.251 44.5918 221.1 44.652 220.901 44.6972 220.655 44.7273 220.408 44.7574 220.097 44.7724 219.724 44.7724 219.327 44.7724 219.004 44.7574 218.758 44.7273 218.511 44.6972 218.315 44.652 218.17 44.5918 218.026 44.5316 217.923 44.4563 217.863 44.3659 217.803 44.2756 217.773 44.1702 217.773 44.0498L217.773 42.1889C216.882 43.1525 215.975 43.8751 215.054 44.3569 214.133 44.8387 213.178 45.0796 212.19 45.0796 211.082 45.0796 210.152 44.8989 209.399 44.5376 208.646 44.1763 208.038 43.6824 207.574 43.0561 207.111 42.4298 206.78 41.7042 206.581 40.8791 206.382 40.0541 206.283 39.0273 206.283 37.7988L206.283 27.9346C206.283 27.8141 206.316 27.7087 206.382 27.6184 206.448 27.5281 206.569 27.4528 206.743 27.3926 206.918 27.3323 207.153 27.2872 207.448 27.2571 207.743 27.2269 208.107 27.2119 208.541 27.2119ZM257.654 26.9048C259.003 26.9048 260.156 27.1035 261.113 27.501 262.071 27.8984 262.857 28.4494 263.471 29.154 264.085 29.8586 264.537 30.6927 264.826 31.6562 265.115 32.6198 265.26 33.6676 265.26 34.7998L265.26 35.5224C265.26 36.0765 265.136 36.486 264.889 36.751 264.642 37.0159 264.302 37.1484 263.869 37.1484L254.059 37.1484C254.059 37.8349 254.14 38.4582 254.302 39.0183 254.465 39.5784 254.724 40.0541 255.079 40.4455 255.435 40.837 255.892 41.1351 256.452 41.3398 257.012 41.5446 257.684 41.647 258.467 41.647 259.262 41.647 259.96 41.5897 260.562 41.4753 261.165 41.3609 261.686 41.2344 262.125 41.0959 262.565 40.9574 262.929 40.831 263.218 40.7165 263.507 40.6021 263.742 40.5449 263.923 40.5449 264.031 40.5449 264.122 40.566 264.194 40.6081 264.266 40.6503 264.326 40.7256 264.374 40.834 264.423 40.9424 264.456 41.0959 264.474 41.2947 264.492 41.4934 264.501 41.7433 264.501 42.0444 264.501 42.3094 264.495 42.5352 264.483 42.7219 264.471 42.9086 264.453 43.0682 264.429 43.2007 264.405 43.3332 264.368 43.4446 264.32 43.5349 264.272 43.6252 264.209 43.7125 264.131 43.7969 264.052 43.8812 263.839 43.9956 263.489 44.1401 263.14 44.2846 262.694 44.4262 262.152 44.5647 261.61 44.7032 260.99 44.8236 260.291 44.926 259.593 45.0284 258.846 45.0796 258.051 45.0796 256.618 45.0796 255.362 44.8989 254.284 44.5376 253.206 44.1763 252.306 43.6282 251.583 42.8935 250.861 42.1588 250.322 41.2314 249.967 40.1113 249.611 38.9912 249.434 37.6784 249.434 36.1728 249.434 34.7396 249.62 33.4478 249.994 32.2976 250.367 31.1474 250.909 30.1718 251.62 29.3708 252.33 28.5699 253.194 27.9586 254.212 27.5371 255.23 27.1155 256.377 26.9048 257.654 26.9048ZM241.064 26.9048C241.57 26.9048 242.061 26.9409 242.536 27.0132 243.012 27.0854 243.443 27.1758 243.828 27.2842 244.214 27.3926 244.539 27.51 244.804 27.6365 245.069 27.7629 245.258 27.8713 245.373 27.9617 245.487 28.052 245.568 28.1423 245.617 28.2326 245.665 28.323 245.701 28.4314 245.725 28.5578 245.749 28.6843 245.77 28.8409 245.788 29.0276 245.806 29.2143 245.815 29.4461 245.815 29.7231 245.815 30.0483 245.806 30.3133 245.788 30.518 245.77 30.7228 245.74 30.8854 245.698 31.0058 245.656 31.1263 245.599 31.2076 245.526 31.2497 245.454 31.2919 245.37 31.313 245.273 31.313 245.165 31.313 244.996 31.2497 244.768 31.1233 244.539 30.9968 244.253 30.8613 243.909 30.7168 243.566 30.5722 243.169 30.4367 242.717 30.3103 242.265 30.1838 241.75 30.1206 241.172 30.1206 240.763 30.1206 240.408 30.1627 240.106 30.2471 239.805 30.3314 239.558 30.4518 239.366 30.6084 239.173 30.765 239.028 30.9486 238.932 31.1594 238.836 31.3702 238.788 31.596 238.788 31.8369 238.788 32.2103 238.902 32.5234 239.131 32.7763 239.36 33.0293 239.661 33.2521 240.034 33.4448 240.408 33.6375 240.832 33.8182 241.308 33.9868 241.784 34.1554 242.265 34.3391 242.753 34.5378 243.241 34.7366 243.723 34.9684 244.198 35.2334 244.674 35.4984 245.099 35.8235 245.472 36.209 245.846 36.5944 246.147 37.0551 246.375 37.591 246.604 38.127 246.719 38.7624 246.719 39.4971 246.719 40.4124 246.547 41.2194 246.204 41.9179 245.861 42.6165 245.376 43.2007 244.749 43.6704 244.123 44.1401 243.382 44.4924 242.527 44.7273 241.672 44.9621 240.745 45.0796 239.745 45.0796 239.143 45.0796 238.568 45.0344 238.02 44.9441 237.472 44.8537 236.981 44.7393 236.547 44.6008 236.114 44.4623 235.752 44.3208 235.463 44.1763 235.174 44.0317 234.964 43.8962 234.831 43.7698 234.699 43.6433 234.596 43.4446 234.524 43.1736 234.452 42.9026 234.415 42.5021 234.415 41.9721 234.415 41.6229 234.428 41.3428 234.452 41.1321 234.476 40.9213 234.512 40.7527 234.56 40.6262 234.608 40.4997 234.668 40.4154 234.741 40.3733 234.813 40.3311 234.903 40.31 235.012 40.31 235.144 40.31 235.34 40.3853 235.599 40.5359 235.858 40.6864 236.18 40.852 236.565 41.0327 236.951 41.2134 237.399 41.382 237.911 41.5386 238.423 41.6951 239.004 41.7734 239.655 41.7734 240.064 41.7734 240.429 41.7313 240.748 41.647 241.067 41.5626 241.344 41.4422 241.579 41.2856 241.814 41.1291 241.991 40.9303 242.112 40.6894 242.232 40.4485 242.292 40.1715 242.292 39.8584 242.292 39.4971 242.181 39.1869 241.958 38.928 241.735 38.669 241.44 38.4432 241.073 38.2505 240.706 38.0578 240.29 37.8771 239.826 37.7085 239.363 37.5399 238.887 37.3532 238.399 37.1484 237.911 36.9437 237.436 36.7088 236.972 36.4438 236.508 36.1789 236.093 35.8537 235.725 35.4682 235.358 35.0828 235.063 34.6191 234.84 34.0771 234.617 33.5351 234.506 32.8847 234.506 32.126 234.506 31.3551 234.656 30.6475 234.957 30.0032 235.259 29.3588 235.692 28.8078 236.258 28.3501 236.824 27.8924 237.514 27.5371 238.327 27.2842 239.14 27.0312 240.052 26.9048 241.064 26.9048ZM191.395 24.9536 191.395 32.8847 193.527 32.8847C194.286 32.8847 194.921 32.7824 195.433 32.5776 195.945 32.3729 196.364 32.0868 196.689 31.7195 197.014 31.3521 197.261 30.9125 197.43 30.4006 197.598 29.8887 197.683 29.3317 197.683 28.7295 197.683 27.9105 197.538 27.236 197.249 26.706 196.96 26.1761 196.605 25.7846 196.183 25.5317 195.762 25.2788 195.319 25.1192 194.855 25.053 194.391 24.9867 193.913 24.9536 193.419 24.9536ZM188.252 21.2861 193.762 21.2861C194.316 21.2861 194.843 21.3072 195.343 21.3493 195.843 21.3915 196.442 21.4818 197.141 21.6203 197.839 21.7589 198.547 22.0148 199.263 22.3882 199.98 22.7615 200.591 23.2343 201.097 23.8064 201.603 24.3785 201.988 25.0469 202.253 25.8117 202.518 26.5766 202.651 27.4347 202.651 28.3862 202.651 29.699 202.446 30.8613 202.037 31.873 201.627 32.8847 201.031 33.7369 200.248 34.4294 199.465 35.122 198.505 35.6489 197.366 36.0102 196.228 36.3716 194.888 36.5522 193.347 36.5522L191.395 36.5522 191.395 44.0137C191.395 44.1341 191.356 44.2425 191.278 44.3388 191.2 44.4352 191.07 44.5135 190.89 44.5737 190.709 44.6339 190.468 44.6821 190.167 44.7182 189.866 44.7544 189.48 44.7724 189.011 44.7724 188.553 44.7724 188.171 44.7544 187.863 44.7182 187.556 44.6821 187.312 44.6339 187.132 44.5737 186.951 44.5135 186.825 44.4352 186.752 44.3388 186.68 44.2425 186.644 44.1341 186.644 44.0137L186.644 22.9844C186.644 22.4183 186.792 21.9937 187.087 21.7107 187.382 21.4276 187.77 21.2861 188.252 21.2861ZM228.649 19.5156C229.095 19.5156 229.462 19.5337 229.751 19.5698 230.04 19.6059 230.272 19.6571 230.447 19.7234 230.622 19.7896 230.745 19.8709 230.817 19.9673 230.89 20.0636 230.926 20.172 230.926 20.2925L230.926 44.0498C230.926 44.1702 230.89 44.2756 230.817 44.3659 230.745 44.4563 230.622 44.5316 230.447 44.5918 230.272 44.652 230.04 44.6972 229.751 44.7273 229.462 44.7574 229.095 44.7724 228.649 44.7724 228.204 44.7724 227.836 44.7574 227.547 44.7273 227.258 44.6972 227.026 44.652 226.852 44.5918 226.677 44.5316 226.554 44.4563 226.481 44.3659 226.409 44.2756 226.373 44.1702 226.373 44.0498L226.373 20.2925C226.373 20.172 226.409 20.0636 226.481 19.9673 226.554 19.8709 226.677 19.7896 226.852 19.7234 227.026 19.6571 227.258 19.6059 227.547 19.5698 227.836 19.5337 228.204 19.5156 228.649 19.5156Z" stroke="#FF3399" stroke-linejoin="round" stroke-miterlimit="10" fill="#FF3399" fill-rule="evenodd"/>
  <text fill="#000000" fill-opacity="0" font-family="Arial,Arial_MSFontService,sans-serif" font-size="25.564" x="186.644" y="41.8841">Pulse</text>
  <path d="M4 34C4 16.8792 17.8792 3 35 3 52.1208 3 66 16.8792 66 34 66 51.1208 52.1208 65 35 65 17.8792 65 4 51.1208 4 34Z" fill="#FF3399" fill-rule="evenodd"/>
  <path d="M39.0363 25.8485 39.0363 32.7078 40.88 32.7078C41.5363 32.7078 42.0858 32.6193 42.5285 32.4422 42.9712 32.2651 43.3332 32.0177 43.6144 31.7 43.8957 31.3823 44.1092 31.0021 44.255 30.5594 44.4009 30.1167 44.4738 29.6349 44.4738 29.1141 44.4738 28.4057 44.3488 27.8224 44.0988 27.3641 43.8488 26.9057 43.5415 26.5672 43.1769 26.3485 42.8123 26.1297 42.4295 25.9917 42.0285 25.9344 41.6274 25.8771 41.2134 25.8485 40.7863 25.8485ZM36.3175 22.6766 41.0832 22.6766C41.5623 22.6766 42.0181 22.6948 42.4503 22.7313 42.8826 22.7677 43.4009 22.8458 44.005 22.9656 44.6092 23.0854 45.2212 23.3068 45.841 23.6297 46.4608 23.9526 46.9894 24.3615 47.4269 24.8563 47.8644 25.3511 48.1977 25.9292 48.4269 26.5906 48.6561 27.2521 48.7707 27.9943 48.7707 28.8172 48.7707 29.9526 48.5936 30.9578 48.2394 31.8328 47.8852 32.7078 47.3696 33.4448 46.6925 34.0438 46.0154 34.6427 45.1847 35.0985 44.2003 35.411 43.216 35.7235 42.0571 35.8797 40.7238 35.8797L39.0363 35.8797 39.0363 42.3328C39.0363 42.437 39.0024 42.5307 38.9347 42.6141 38.867 42.6974 38.755 42.7651 38.5988 42.8172 38.4425 42.8693 38.2342 42.911 37.9738 42.9422 37.7134 42.9735 37.38 42.9891 36.9738 42.9891 36.5779 42.9891 36.2472 42.9735 35.9816 42.9422 35.716 42.911 35.505 42.8693 35.3488 42.8172 35.1925 42.7651 35.0832 42.6974 35.0207 42.6141 34.9582 42.5307 34.9269 42.437 34.9269 42.3328L34.9269 24.1453C34.9269 23.6557 35.0545 23.2886 35.3097 23.0438 35.5649 22.799 35.9009 22.6766 36.3175 22.6766ZM25.8332 22.3172C26.3123 22.3172 26.7915 22.3537 27.2707 22.4266 27.7498 22.4995 28.1977 22.5985 28.6144 22.7235 29.0311 22.8485 29.4009 22.9891 29.7238 23.1453 30.0467 23.3016 30.2602 23.4318 30.3644 23.536 30.4686 23.6401 30.5389 23.7287 30.5753 23.8016 30.6118 23.8745 30.6431 23.9708 30.6691 24.0906 30.6951 24.2104 30.7134 24.3615 30.7238 24.5438 30.7342 24.7261 30.7394 24.9526 30.7394 25.2235 30.7394 25.5255 30.7316 25.7807 30.716 25.9891 30.7003 26.1974 30.6743 26.3693 30.6378 26.5047 30.6014 26.6401 30.5493 26.7391 30.4816 26.8016 30.4139 26.8641 30.3227 26.8953 30.2082 26.8953 30.0936 26.8953 29.9113 26.8224 29.6613 26.6766 29.4113 26.5307 29.104 26.3719 28.7394 26.2 28.3748 26.0281 27.9529 25.8719 27.4738 25.7313 26.9946 25.5906 26.4686 25.5203 25.8957 25.5203 25.4477 25.5203 25.0571 25.575 24.7238 25.6844 24.3904 25.7938 24.1118 25.9448 23.8878 26.1375 23.6639 26.3302 23.4972 26.562 23.3878 26.8328 23.2785 27.1037 23.2238 27.3901 23.2238 27.6922 23.2238 28.1401 23.3462 28.5281 23.591 28.8563 23.8358 29.1844 24.1639 29.4761 24.5753 29.7313 24.9868 29.9865 25.4529 30.2261 25.9738 30.45 26.4946 30.674 27.0259 30.911 27.5675 31.161 28.1092 31.411 28.6404 31.6948 29.1613 32.0125 29.6821 32.3302 30.1457 32.7104 30.5519 33.1531 30.9582 33.5958 31.2863 34.1167 31.5363 34.7156 31.7863 35.3146 31.9113 36.0203 31.9113 36.8328 31.9113 37.8953 31.7134 38.8276 31.3175 39.6297 30.9217 40.4318 30.3852 41.1011 29.7082 41.6375 29.0311 42.174 28.2394 42.5776 27.3332 42.8485 26.4269 43.1193 25.4582 43.2547 24.4269 43.2547 23.729 43.2547 23.0806 43.1974 22.4816 43.0828 21.8826 42.9682 21.354 42.8302 20.8957 42.6688 20.4373 42.5073 20.0545 42.338 19.7472 42.161 19.4399 41.9839 19.2186 41.8276 19.0832 41.6922 18.9477 41.5568 18.8514 41.3615 18.7941 41.1063 18.7368 40.8511 18.7082 40.4839 18.7082 40.0047 18.7082 39.6818 18.7186 39.411 18.7394 39.1922 18.7602 38.9735 18.7941 38.7964 18.841 38.661 18.8878 38.5255 18.9503 38.4292 19.0285 38.3719 19.1066 38.3146 19.1977 38.286 19.3019 38.286 19.4477 38.286 19.6535 38.3719 19.9191 38.5438 20.1847 38.7156 20.5259 38.9057 20.9425 39.1141 21.3592 39.3224 21.8566 39.5125 22.4347 39.6844 23.0128 39.8563 23.6821 39.9422 24.4425 39.9422 24.9425 39.9422 25.3904 39.8823 25.7863 39.7625 26.1821 39.6427 26.5181 39.4735 26.7941 39.2547 27.0701 39.036 27.2811 38.7651 27.4269 38.4422 27.5727 38.1193 27.6457 37.7599 27.6457 37.3641 27.6457 36.9057 27.5207 36.5125 27.2707 36.1844 27.0207 35.8563 26.6951 35.5646 26.2941 35.3094 25.8931 35.0542 25.4373 34.8146 24.9269 34.5906 24.4165 34.3667 23.8904 34.1297 23.3488 33.8797 22.8071 33.6297 22.2811 33.3458 21.7707 33.0281 21.2602 32.7104 20.8045 32.3302 20.4035 31.8875 20.0024 31.4448 19.6769 30.9214 19.4269 30.3172 19.1769 29.713 19.0519 28.9891 19.0519 28.1453 19.0519 27.1766 19.2316 26.325 19.591 25.5906 19.9503 24.8563 20.4347 24.2469 21.0441 23.7625 21.6535 23.2781 22.3722 22.9162 23.2003 22.6766 24.0285 22.437 24.9061 22.3172 25.8332 22.3172Z" stroke="#FFFFFF" stroke-linejoin="round" stroke-miterlimit="10" fill="#FFFFFF" fill-rule="evenodd"/>
  <text fill="#000000" fill-opacity="0" font-family="Arial,Arial_MSFontService,sans-serif" font-size="20.9375" x="18.7082" y="40.6375">SP</text>
</svg>