<svg width="70" height="70" xmlns="http://www.w3.org/2000/svg" xmlns:xlink="http://www.w3.org/1999/xlink" overflow="hidden" fill="transparent">
  <rect x="0" y="0" width="70" height="70" fill="transparent"/>
  <path d="M4 34C4 16.8792 17.8792 3 35 3 52.1208 3 66 16.8792 66 34 66 51.1208 52.1208 65 35 65 17.8792 65 4 51.1208 4 34Z" fill="#FF3399" fill-rule="evenodd"/>
  <path d="M39.0363 25.8485 39.0363 32.7078 40.88 32.7078C41.5363 32.7078 42.0858 32.6193 42.5285 32.4422 42.9712 32.2651 43.3332 32.0177 43.6144 31.7 43.8957 31.3823 44.1092 31.0021 44.255 30.5594 44.4009 30.1167 44.4738 29.6349 44.4738 29.1141 44.4738 28.4057 44.3488 27.8224 44.0988 27.3641 43.8488 26.9057 43.5415 26.5672 43.1769 26.3485 42.8123 26.1297 42.4295 25.9917 42.0285 25.9344 41.6274 25.8771 41.2134 25.8485 40.7863 25.8485ZM36.3175 22.6766 41.0832 22.6766C41.5623 22.6766 42.0181 22.6948 42.4503 22.7313 42.8826 22.7677 43.4009 22.8458 44.005 22.9656 44.6092 23.0854 45.2212 23.3068 45.841 23.6297 46.4608 23.9526 46.9894 24.3615 47.4269 24.8563 47.8644 25.3511 48.1977 25.9292 48.4269 26.5906 48.6561 27.2521 48.7707 27.9943 48.7707 28.8172 48.7707 29.9526 48.5936 30.9578 48.2394 31.8328 47.8852 32.7078 47.3696 33.4448 46.6925 34.0438 46.0154 34.6427 45.1847 35.0985 44.2003 35.411 43.216 35.7235 42.0571 35.8797 40.7238 35.8797L39.0363 35.8797 39.0363 42.3328C39.0363 42.437 39.0024 42.5307 38.9347 42.6141 38.867 42.6974 38.755 42.7651 38.5988 42.8172 38.4425 42.8693 38.2342 42.911 37.9738 42.9422 37.7134 42.9735 37.38 42.9891 36.9738 42.9891 36.5779 42.9891 36.2472 42.9735 35.9816 42.9422 35.716 42.911 35.505 42.8693 35.3488 42.8172 35.1925 42.7651 35.0832 42.6974 35.0207 42.6141 34.9582 42.5307 34.9269 42.437 34.9269 42.3328L34.9269 24.1453C34.9269 23.6557 35.0545 23.2886 35.3097 23.0438 35.5649 22.799 35.9009 22.6766 36.3175 22.6766ZM25.8332 22.3172C26.3123 22.3172 26.7915 22.3537 27.2707 22.4266 27.7498 22.4995 28.1977 22.5985 28.6144 22.7235 29.0311 22.8485 29.4009 22.9891 29.7238 23.1453 30.0467 23.3016 30.2602 23.4318 30.3644 23.536 30.4686 23.6401 30.5389 23.7287 30.5753 23.8016 30.6118 23.8745 30.6431 23.9708 30.6691 24.0906 30.6951 24.2104 30.7134 24.3615 30.7238 24.5438 30.7342 24.7261 30.7394 24.9526 30.7394 25.2235 30.7394 25.5255 30.7316 25.7807 30.716 25.9891 30.7003 26.1974 30.6743 26.3693 30.6378 26.5047 30.6014 26.6401 30.5493 26.7391 30.4816 26.8016 30.4139 26.8641 30.3227 26.8953 30.2082 26.8953 30.0936 26.8953 29.9113 26.8224 29.6613 26.6766 29.4113 26.5307 29.104 26.3719 28.7394 26.2 28.3748 26.0281 27.9529 25.8719 27.4738 25.7313 26.9946 25.5906 26.4686 25.5203 25.8957 25.5203 25.4477 25.5203 25.0571 25.575 24.7238 25.6844 24.3904 25.7938 24.1118 25.9448 23.8878 26.1375 23.6639 26.3302 23.4972 26.562 23.3878 26.8328 23.2785 27.1037 23.2238 27.3901 23.2238 27.6922 23.2238 28.1401 23.3462 28.5281 23.591 28.8563 23.8358 29.1844 24.1639 29.4761 24.5753 29.7313 24.9868 29.9865 25.4529 30.2261 25.9738 30.45 26.4946 30.674 27.0259 30.911 27.5675 31.161 28.1092 31.411 28.6404 31.6948 29.1613 32.0125 29.6821 32.3302 30.1457 32.7104 30.5519 33.1531 30.9582 33.5958 31.2863 34.1167 31.5363 34.7156 31.7863 35.3146 31.9113 36.0203 31.9113 36.8328 31.9113 37.8953 31.7134 38.8276 31.3175 39.6297 30.9217 40.4318 30.3852 41.1011 29.7082 41.6375 29.0311 42.174 28.2394 42.5776 27.3332 42.8485 26.4269 43.1193 25.4582 43.2547 24.4269 43.2547 23.729 43.2547 23.0806 43.1974 22.4816 43.0828 21.8826 42.9682 21.354 42.8302 20.8957 42.6688 20.4373 42.5073 20.0545 42.338 19.7472 42.161 19.4399 41.9839 19.2186 41.8276 19.0832 41.6922 18.9477 41.5568 18.8514 41.3615 18.7941 41.1063 18.7368 40.8511 18.7082 40.4839 18.7082 40.0047 18.7082 39.6818 18.7186 39.411 18.7394 39.1922 18.7602 38.9735 18.7941 38.7964 18.841 38.661 18.8878 38.5255 18.9503 38.4292 19.0285 38.3719 19.1066 38.3146 19.1977 38.286 19.3019 38.286 19.4477 38.286 19.6535 38.3719 19.9191 38.5438 20.1847 38.7156 20.5259 38.9057 20.9425 39.1141 21.3592 39.3224 21.8566 39.5125 22.4347 39.6844 23.0128 39.8563 23.6821 39.9422 24.4425 39.9422 24.9425 39.9422 25.3904 39.8823 25.7863 39.7625 26.1821 39.6427 26.5181 39.4735 26.7941 39.2547 27.0701 39.036 27.2811 38.7651 27.4269 38.4422 27.5727 38.1193 27.6457 37.7599 27.6457 37.3641 27.6457 36.9057 27.5207 36.5125 27.2707 36.1844 27.0207 35.8563 26.6951 35.5646 26.2941 35.3094 25.8931 35.0542 25.4373 34.8146 24.9269 34.5906 24.4165 34.3667 23.8904 34.1297 23.3488 33.8797 22.8071 33.6297 22.2811 33.3458 21.7707 33.0281 21.2602 32.7104 20.8045 32.3302 20.4035 31.8875 20.0024 31.4448 19.6769 30.9214 19.4269 30.3172 19.1769 29.713 19.0519 28.9891 19.0519 28.1453 19.0519 27.1766 19.2316 26.325 19.591 25.5906 19.9503 24.8563 20.4347 24.2469 21.0441 23.7625 21.6535 23.2781 22.3722 22.9162 23.2003 22.6766 24.0285 22.437 24.9061 22.3172 25.8332 22.3172Z" stroke="#FFFFFF" stroke-linejoin="round" stroke-miterlimit="10" fill="#FFFFFF" fill-rule="evenodd"/>
  <text fill="#000000" fill-opacity="0" font-family="Arial,Arial_MSFontService,sans-serif" font-size="20.9375" x="18.7082" y="40.6375">SP</text>
</svg>